<mxfile host="app.diagrams.net" modified="2024-01-18T02:08:46.097Z" agent="Mozilla/5.0 (Windows NT 10.0; Win64; x64) AppleWebKit/537.36 (KHTML, like Gecko) Chrome/120.0.0.0 Safari/537.36" etag="7cLBFrsx-xK3DUINabTG" version="22.1.21" type="device">
  <diagram id="M_AzXYqvTtqrILJlZ00b" name="Page-2">
    <mxGraphModel dx="981" dy="626" grid="1" gridSize="10" guides="1" tooltips="1" connect="1" arrows="1" fold="1" page="1" pageScale="1" pageWidth="827" pageHeight="1169" math="0" shadow="0">
      <root>
        <mxCell id="0" />
        <mxCell id="1" parent="0" />
        <mxCell id="6piVW7B-nzq4YzW6H84q-5" value="" style="edgeStyle=orthogonalEdgeStyle;rounded=0;orthogonalLoop=1;jettySize=auto;html=1;" parent="1" source="6piVW7B-nzq4YzW6H84q-1" target="6piVW7B-nzq4YzW6H84q-4" edge="1">
          <mxGeometry relative="1" as="geometry" />
        </mxCell>
        <mxCell id="6piVW7B-nzq4YzW6H84q-1" value="START" style="ellipse;whiteSpace=wrap;html=1;" parent="1" vertex="1">
          <mxGeometry x="350" y="280" width="120" height="80" as="geometry" />
        </mxCell>
        <mxCell id="6piVW7B-nzq4YzW6H84q-7" value="" style="edgeStyle=orthogonalEdgeStyle;rounded=0;orthogonalLoop=1;jettySize=auto;html=1;" parent="1" source="6piVW7B-nzq4YzW6H84q-4" target="6piVW7B-nzq4YzW6H84q-6" edge="1">
          <mxGeometry relative="1" as="geometry" />
        </mxCell>
        <mxCell id="6piVW7B-nzq4YzW6H84q-4" value="Wgraj dane z górnych elementów stosów" style="shape=parallelogram;perimeter=parallelogramPerimeter;whiteSpace=wrap;html=1;fixedSize=1;" parent="1" vertex="1">
          <mxGeometry x="510" y="285" width="160" height="70" as="geometry" />
        </mxCell>
        <mxCell id="6piVW7B-nzq4YzW6H84q-11" value="" style="edgeStyle=orthogonalEdgeStyle;rounded=0;orthogonalLoop=1;jettySize=auto;html=1;" parent="1" source="6piVW7B-nzq4YzW6H84q-6" target="6piVW7B-nzq4YzW6H84q-10" edge="1">
          <mxGeometry relative="1" as="geometry" />
        </mxCell>
        <mxCell id="6piVW7B-nzq4YzW6H84q-6" value="Posortuj elementy" style="whiteSpace=wrap;html=1;" parent="1" vertex="1">
          <mxGeometry x="707" y="290" width="120" height="60" as="geometry" />
        </mxCell>
        <mxCell id="6piVW7B-nzq4YzW6H84q-13" value="" style="edgeStyle=orthogonalEdgeStyle;rounded=0;orthogonalLoop=1;jettySize=auto;html=1;" parent="1" source="6piVW7B-nzq4YzW6H84q-10" target="6piVW7B-nzq4YzW6H84q-12" edge="1">
          <mxGeometry relative="1" as="geometry" />
        </mxCell>
        <mxCell id="6piVW7B-nzq4YzW6H84q-10" value="" style="ellipse;whiteSpace=wrap;html=1;fillColor=#d5e8d4;strokeColor=#82b366;" parent="1" vertex="1">
          <mxGeometry x="880" y="295" width="53" height="50" as="geometry" />
        </mxCell>
        <mxCell id="6piVW7B-nzq4YzW6H84q-15" value="" style="edgeStyle=orthogonalEdgeStyle;rounded=0;orthogonalLoop=1;jettySize=auto;html=1;" parent="1" source="6piVW7B-nzq4YzW6H84q-12" edge="1">
          <mxGeometry relative="1" as="geometry">
            <mxPoint x="500" y="320" as="targetPoint" />
            <Array as="points">
              <mxPoint x="1160" y="320" />
              <mxPoint x="1160" y="260" />
              <mxPoint x="500" y="260" />
            </Array>
          </mxGeometry>
        </mxCell>
        <mxCell id="6piVW7B-nzq4YzW6H84q-12" value="Wyczyść wszystkie listy" style="whiteSpace=wrap;html=1;" parent="1" vertex="1">
          <mxGeometry x="979.5" y="290" width="120" height="60" as="geometry" />
        </mxCell>
      </root>
    </mxGraphModel>
  </diagram>
</mxfile>
